<?xml version="1.0" standalone="no"?>
<!DOCTYPE svg PUBLIC "-//W3C//DTD SVG 20010904//EN"
 "http://www.w3.org/TR/2001/REC-SVG-20010904/DTD/svg10.dtd">
<svg version="1.0" xmlns="http://www.w3.org/2000/svg"
 width="466.000000pt" height="466.000000pt" viewBox="0 0 466.000000 466.000000"
 preserveAspectRatio="xMidYMid meet">
<metadata>
Created by potrace 1.11, written by Peter Selinger 2001-2013
</metadata>
<g transform="translate(0.000000,466.000000) scale(0.100000,-0.100000)"
fill="#000000" stroke="none">
<path d="M2785 4551 c-51 -21 -77 -79 -61 -136 31 -107 178 -107 214 1 11 33
11 44 -4 76 -25 55 -92 82 -149 59z m87 -75 c14 -21 8 -55 -13 -70 -28 -19
-61 -7 -74 29 -8 23 -6 30 14 46 24 20 59 18 73 -5z"/>
<path d="M1668 4453 c-9 -2 -19 -15 -22 -29 -4 -14 -18 -29 -32 -34 -33 -13
-30 -52 6 -60 15 -4 26 -15 30 -30 4 -16 14 -26 28 -28 17 -3 25 3 33 27 7 20
18 31 30 31 10 0 23 9 29 20 9 18 6 23 -25 41 -19 12 -35 27 -35 34 0 18 -22
32 -42 28z"/>
<path d="M3714 4149 c-10 -12 -18 -23 -16 -25 8 -14 -3 -27 -33 -40 -20 -8
-39 -22 -42 -31 -8 -22 9 -46 38 -53 15 -4 31 -20 42 -43 24 -51 61 -52 81 -2
10 23 26 39 50 49 52 22 47 67 -9 78 -11 2 -27 18 -36 36 -14 30 -34 51 -50
52 -3 0 -14 -9 -25 -21z"/>
<path d="M2217 4114 c-1 -1 -40 -4 -87 -8 -128 -9 -190 -18 -310 -46 -95 -23
-254 -73 -315 -100 -22 -10 -65 -29 -96 -43 l-57 -25 -95 94 c-79 78 -100 94
-126 94 -40 0 -71 -31 -71 -72 0 -27 20 -52 154 -187 85 -86 160 -169 169
-186 45 -93 -17 -216 -117 -232 -81 -13 -98 -2 -275 171 -181 177 -203 191
-288 173 -79 -16 -141 -104 -128 -179 10 -56 26 -78 125 -179 104 -106 130
-146 130 -197 0 -67 -58 -145 -118 -158 -15 -3 -32 -7 -38 -9 -7 -2 -29 1 -51
7 -29 7 -63 32 -126 93 -103 98 -157 127 -238 126 -106 0 -206 -68 -241 -164
-21 -58 -18 -159 7 -207 10 -19 73 -91 141 -160 l124 -126 -25 -114 c-21 -105
-27 -139 -40 -265 -6 -53 -6 -297 0 -360 4 -45 15 -123 21 -150 1 -5 4 -26 8
-46 26 -163 99 -378 185 -550 54 -108 167 -289 208 -334 10 -11 31 -38 48 -60
16 -22 80 -90 141 -151 l112 -111 -131 -1 c-184 0 -184 0 -191 -18 -18 -46
-78 -44 1569 -44 1647 0 1587 -2 1569 44 -6 16 -24 19 -96 18 l-38 -1 101 96
c55 53 135 140 176 192 42 53 79 99 83 104 4 4 27 -4 52 -18 56 -31 134 -38
202 -18 66 20 147 101 166 167 17 61 8 150 -20 201 -12 23 -86 106 -166 185
-123 124 -144 149 -144 176 0 39 30 67 71 66 26 -1 50 -19 138 -105 58 -57
116 -109 128 -116 54 -28 138 -15 194 31 43 35 60 122 35 182 -8 20 -72 94
-147 169 l-133 134 -2 154 c-3 266 -36 457 -122 696 -104 288 -259 531 -487
759 -348 349 -796 559 -1280 600 -65 5 -254 12 -258 8z"/>
<path d="M343 4100 c-38 -9 -87 -46 -102 -78 -36 -75 -21 -150 41 -213 70 -71
147 -88 217 -48 100 56 116 179 34 270 -58 64 -118 86 -190 69z"/>
<path d="M3850 448 c-15 -5 -20 -15 -18 -30 3 -21 8 -23 73 -23 60 0 70 3 73
19 2 10 -1 23 -6 28 -13 13 -94 16 -122 6z"/>
<path d="M1189 288 c-22 -40 -4 -43 317 -43 254 0 306 3 314 15 5 8 5 21 0 31
-8 15 -40 16 -315 16 -294 0 -306 0 -316 -19z"/>
<path d="M1903 303 c-18 -7 -16 -38 3 -53 12 -11 18 -10 32 4 25 25 -2 63 -35
49z"/>
<path d="M2035 296 c-17 -12 -11 -45 9 -47 31 -4 603 -4 618 -1 21 5 31 31 18
47 -14 17 -622 18 -645 1z"/>
<path d="M3303 233 c-12 -2 -35 -19 -51 -37 l-29 -33 -287 0 c-248 -1 -290 -3
-304 -16 -13 -13 -13 -19 -2 -32 11 -13 53 -15 333 -13 l321 3 8 33 c8 28 13
33 35 30 25 -3 36 -14 47 -51 5 -16 20 -17 163 -15 145 3 158 5 161 22 7 34
-13 39 -142 38 -122 0 -125 0 -141 25 -13 20 -76 57 -87 52 -2 -1 -13 -4 -25
-6z"/>
<path d="M2503 159 c-32 -12 -30 -47 2 -55 34 -8 55 1 55 25 0 26 -29 41 -57
30z"/>
</g>
</svg>
